<svg width="243" height="47" viewBox="0 0 243 47" fill="none" xmlns="http://www.w3.org/2000/svg">
<path fill-rule="evenodd" clip-rule="evenodd" d="M231.969 0.0238611C229.993 0.214361 227.672 1.3593 226.044 2.94736C224.302 4.64628 223.125 7.00795 222.918 9.21795C222.887 9.55733 222.901 10.3649 222.943 10.5905L222.972 10.743L223.168 10.7708C223.454 10.8115 224.159 10.787 224.52 10.7239C225.902 10.4831 227.34 9.80336 228.625 8.78394C229.014 8.47571 229.733 7.74832 230.087 7.30502C230.602 6.65981 231.039 5.97031 231.392 5.2468C231.906 4.19306 232.211 3.19622 232.377 2.02226C232.426 1.68297 232.448 0.625799 232.412 0.35281C232.364 -0.0241183 232.373 -0.00209532 232.265 0.00142652C232.213 0.00311883 232.08 0.013227 231.969 0.0238611ZM231.084 11.3344C230.552 11.3658 229.83 11.4822 229.197 11.6385C228.364 11.8443 227.74 12.0567 226.27 12.6334C225.078 13.1013 224.708 13.2316 224.228 13.353C223.62 13.5071 223.086 13.5032 222.428 13.3401C221.962 13.2246 221.622 13.1035 220.397 12.618C219.219 12.1508 218.789 11.9952 218.231 11.8339C216.874 11.4412 215.79 11.3539 214.424 11.5269C212.95 11.7134 211.525 12.2017 210.239 12.9604C207.738 14.4353 205.87 16.8175 204.864 19.8138C204.121 22.0269 203.861 24.5356 204.089 27.2926C204.297 29.817 204.914 32.4966 205.871 35.0338C206.486 36.6624 207.317 38.378 208.142 39.722C208.897 40.9507 210.418 43.0136 211.362 44.09C213.12 46.0922 214.75 46.945 216.571 46.815C217.53 46.7465 218.138 46.5756 219.614 45.9597C220.567 45.5623 220.964 45.4137 221.457 45.2713C222.946 44.8406 224.629 44.8028 226.087 45.1671C226.697 45.3196 227.048 45.4466 228.088 45.8908C229.378 46.4417 229.872 46.5974 230.684 46.7089C231.044 46.7584 231.817 46.7776 232.124 46.7447C233.544 46.5927 234.839 45.8881 236.127 44.5669C236.913 43.7607 237.709 42.7472 238.852 41.0941C240.113 39.2717 241.236 37.0471 241.934 34.9881C242.146 34.3623 242.148 34.3564 242.08 34.3354C241.849 34.2642 240.969 33.7807 240.506 33.4717C237.863 31.7062 236.267 29.1609 235.923 26.1606C235.636 23.665 236.186 21.2914 237.522 19.2656C238.296 18.0912 239.414 16.9715 240.615 16.1691C240.769 16.0662 240.895 15.9708 240.895 15.9573C240.895 15.9185 240.581 15.4984 240.308 15.1723C238.381 12.867 235.657 11.5423 232.433 11.3422C232.086 11.3206 231.386 11.3166 231.084 11.3344Z" fill="#2D2D2D"/>
<path d="M138.793 32.8404C132.986 42.6896 123.785 39.8319 121.019 37.5935C119.844 38.3926 117.781 40.1415 115.032 39.9365C109.174 39.5181 107.082 31.15 107.082 31.15C106.215 31.4889 105.3 31.6935 104.371 31.7567C104.371 34.2128 102.237 40.0746 96.5134 39.9993C90.0909 39.9156 88.7813 30.3425 88.7813 30.3425C88.7813 30.3425 88.1411 31.2295 85.7102 32.1124C85.8315 30.2254 85.7436 39.7106 78.045 39.8487C71.9572 39.9574 70.3129 30.1919 70.3129 30.1919C69.442 30.9731 68.3639 31.486 67.2083 31.6689C67.338 29.7526 67.1288 39.8779 59.426 39.8445C54.221 39.8236 52.4428 33.8278 52.5809 32.9952C52.7566 31.9366 50.8236 39.9909 45.7651 39.8654C43.6731 39.8026 42.125 38.2922 41.1626 36.2797C39.8572 37.7734 37.9577 39.8654 35.8322 39.8654C32.0121 39.8654 30.3301 36.6688 30.6147 27.5476C30.6398 26.4639 30.5603 26.0413 29.485 25.874C28.8406 25.7652 28.1796 25.5643 27.4766 25.4555C27.2507 26.2045 25.3511 39.6185 18.8115 39.8738C16.619 39.9574 15.4182 38.0579 14.4308 36.6479C12.9203 38.6478 10.9245 39.9365 8.08776 39.9365C3.27611 39.9365 0 36.0454 0 31.2505C0 26.4555 3.27611 22.5644 8.08776 22.5644C8.72598 22.563 9.35884 22.6808 9.95385 22.9116C8.35554 8.35954 12.1295 6.0876 15.4308 6.0876C18.6023 6.0876 24.0164 13.4432 16.3973 32.1082C18.0709 37.673 21.7361 37.3592 23.4892 25.9032C23.8449 23.5727 22.8909 20.4305 24.3762 19.9912C27.0875 19.1878 27.3762 21.5937 28.6482 21.9953C29.9912 22.4137 30.7778 22.3761 32.0665 22.6481C34.2715 23.0665 35.1334 24.2631 34.8657 26.9032C34.5435 30.2505 33.9786 35.104 35.7025 35.6897C36.9577 36.1081 39.2087 33.5475 39.6062 32.1375C39.9226 31.1923 40.096 30.2051 40.1208 29.2086C40.1012 27.3639 40.268 25.522 40.6187 23.7108C40.7819 23.0665 40.9618 22.6355 41.694 22.6062C42.2965 22.6062 43.3969 22.4096 43.8781 22.7861C44.5224 23.2715 44.4429 23.7652 44.3676 25.0581C43.6187 43.5223 49.3885 34.3048 51.1165 26.9241C50.5014 18.5812 50.924 6.22986 56.1373 6.00392C58.857 5.89513 60.0578 8.07502 60.1917 9.70261C60.5641 14.3051 58.472 21.9033 55.7148 27.0204C54.1416 37.4805 62.6017 39.5265 63.9531 31.2044C61.7398 30.15 59.3507 25.8907 61.2921 23.8154C62.3841 22.6522 66.9322 24.3259 67.0075 27.9743C69.2376 27.376 69.5179 26.1166 69.5681 26.3258C68.9531 17.9828 69.5221 6.24241 74.7522 6.01647C77.4718 5.90768 78.6726 8.08757 78.8065 9.71516C79.1789 14.3176 77.0869 21.9158 74.3296 27.0329C72.7564 37.493 81.2165 39.539 82.568 31.217C80.9278 30.899 77.4676 26.3677 79.4634 23.8279C80.5303 22.4681 85.0617 25.2924 85.5679 28.1082C87.7102 27.5015 88.003 26.284 88.0323 26.489C87.4173 18.146 87.9863 6.40558 93.2164 6.17965C95.936 6.07086 97.1368 8.25075 97.2707 9.87834C97.6431 14.4808 95.5511 22.079 92.7938 27.1961C91.2206 37.6562 99.6807 39.7022 101.032 31.3802C98.7811 31.0036 95.5929 26.2212 98.1535 23.7736C99.1828 22.7945 103.116 25.3342 104.036 28.2296C104.812 28.1925 105.574 28.0108 106.283 27.694C104.241 17.8992 105.76 6.14199 111.388 6.04576C114.429 5.99137 117.4 7.69009 116.095 17.008C114.84 25.8991 110.371 29.6312 110.383 29.6898C110.643 30.7567 112.94 39.6687 118.726 34.9659C118.388 34.2609 118.131 33.5198 117.961 32.7567C117.003 27.8697 118.885 22.3468 124.003 21.4598C126.931 20.9493 129.697 22.3761 130.136 25.5936C130.856 30.8613 126.099 34.6772 124.279 35.5056C123.467 35.0454 131.622 40.2754 136.463 29.7944C136.743 29.1961 137.082 29.2463 137.521 29.5559C137.848 29.7567 139.613 31.4262 138.793 32.8404ZM11.5982 29.9576C11.3513 29.2212 10.845 27.5978 10.6693 26.8949C9.68607 26.0581 8.9957 25.8991 7.74048 25.8991C4.93299 25.8991 3.28029 28.4932 3.28029 31.2923C3.28029 34.0914 5.07943 36.6855 7.88274 36.6855C10.3137 36.6855 12.1672 35.0119 12.7321 32.6898C12.2969 31.7944 11.9036 30.9576 11.5773 29.9576H11.5982ZM15.3638 9.94111C13.3931 9.94111 12.7237 14.6482 12.8534 18.6607C12.9767 21.418 13.5228 24.1401 14.4726 26.7317C14.6023 26.9074 14.5772 26.7944 14.6944 26.9785C18.1085 19.4724 16.6902 9.93692 15.3513 9.93692L15.3638 9.94111ZM56.4344 10.0875C53.8863 9.79466 53.9031 20.4138 54.2169 22.7945C55.539 20.6774 57.8402 10.6608 56.4344 10.0875ZM75.0492 10.0875C72.5011 9.79466 72.5179 20.4138 72.8317 22.7945C74.1455 20.6774 76.4467 10.6566 75.0409 10.0875H75.0492ZM93.5176 10.234C90.9695 9.9411 90.9863 20.5602 91.3001 22.9451C92.6222 20.828 94.9234 10.8114 93.5176 10.234ZM111.689 9.46412C107.718 10.2633 108.643 23.5058 109.245 25.8279C113.923 19.4012 114.019 9.22563 111.689 9.46412ZM126.576 26.012C126.444 25.624 126.182 25.2936 125.834 25.0776C125.486 24.8616 125.074 24.7733 124.668 24.8279C122.672 25.0999 120.739 27.5852 121.488 31.3634C121.606 31.9175 121.8 32.4525 122.065 32.9534C126.517 29.9618 126.894 27.6103 126.563 26.012H126.576ZM42.4764 19.6899C41.7608 19.6885 41.0713 19.4209 40.5421 18.9393C40.0128 18.4576 39.6816 17.7964 39.6129 17.0841C39.5441 16.3718 39.7427 15.6594 40.1701 15.0854C40.5975 14.5115 41.2231 14.117 41.9252 13.9787C42.6273 13.8404 43.3558 13.9682 43.9689 14.3372C44.582 14.7062 45.036 15.29 45.2425 15.9752C45.449 16.6604 45.3933 17.3978 45.0862 18.0442C44.7791 18.6906 44.2426 19.1996 43.581 19.4724C43.2307 19.6168 42.8553 19.6907 42.4764 19.6899Z" fill="#2D2D2D"/>
</svg>
