<svg width="222" height="34" viewBox="0 0 222 34" fill="none" xmlns="http://www.w3.org/2000/svg">
<path d="M189.953 15.2003C189.953 15.2003 195.034 14.8232 195.034 8.86561C195.034 2.90761 190.877 0 185.612 0H168.287V33.2941H185.612C185.612 33.2941 196.189 33.6282 196.189 23.4672C196.189 23.4673 196.65 15.2003 189.953 15.2003ZM184.365 5.91765H185.612C185.612 5.91765 187.967 5.91765 187.967 9.38176C187.967 12.8455 186.582 13.3476 185.011 13.3476H175.921V5.91765H184.365ZM185.123 27.3767H175.921V18.4792H185.612C185.612 18.4792 189.122 18.4332 189.122 23.0516C189.122 26.9459 186.501 27.3473 185.123 27.3767ZM210.294 8.47101C197.49 8.47101 197.502 21.2636 197.502 21.2636C197.502 21.2636 196.623 33.9906 210.294 33.9906C210.294 33.9906 221.686 34.6414 221.686 25.1371H215.828C215.828 25.1371 216.023 28.7163 210.489 28.7163C210.489 28.7163 204.63 29.109 204.63 22.9239H221.882C221.882 22.9238 223.77 8.47101 210.294 8.47101ZM204.565 18.4792C204.565 18.4792 205.281 13.3475 210.424 13.3475C215.567 13.3475 215.502 18.4792 215.502 18.4792H204.565ZM216.867 6.06138H203.131V1.96145H216.867V6.06138Z" fill="#2D2D2D"/>
<path d="M72.0605 9.39648C74.0869 9.39648 75.6963 10.2961 76.5352 11.2959H76.665V9.91309H80.208V25.1631C80.2079 31.4372 76.5081 33.9998 72.1338 34C68.0159 34 65.5372 31.2455 64.6025 28.9932L67.8506 27.6416C68.4291 29.0244 69.847 30.6562 72.1299 30.6562C74.9298 30.6561 76.665 28.9278 76.665 25.6758V24.4541H76.5352C75.7001 25.4845 74.0907 26.3848 72.0605 26.3848C67.8125 26.3847 63.9209 22.6842 63.9209 17.9229C63.9211 13.1271 67.8126 9.3965 72.0605 9.39648ZM35.6777 9.39648C40.374 9.39648 44.2012 12.9665 44.2012 17.8926C44.2011 22.7842 40.374 26.3887 35.6777 26.3887C30.9815 26.3886 27.1553 22.7841 27.1553 17.8926C27.1553 12.9665 30.9815 9.39654 35.6777 9.39648ZM54.0645 9.39648C58.7607 9.39648 62.5879 12.9665 62.5879 17.8926C62.5878 22.7842 58.7607 26.3887 54.0645 26.3887C49.3683 26.3886 45.542 22.7841 45.542 17.8926C45.542 12.9704 49.3683 9.39658 54.0645 9.39648ZM13.3838 0C17.4057 0 20.2711 1.57792 22.4238 3.63477L19.8809 6.17871C18.3371 4.73076 16.2451 3.60449 13.3799 3.60449C8.07088 3.60463 3.91898 7.88335 3.91895 13.1924C3.91895 18.5015 8.07085 22.7801 13.3799 22.7803C16.8235 22.7803 18.7846 21.397 20.041 20.1406C21.0599 19.1217 21.7308 17.6667 21.9951 15.6787L13.3799 15.6826V12.0781H25.5264C25.6451 12.7063 25.707 13.4496 25.707 14.2539C25.707 16.9582 24.9675 20.3021 22.585 22.6846C20.2675 25.0978 17.3063 26.3848 13.3838 26.3848C6.11347 26.3847 0 20.4627 0 13.1924C3.74676e-05 5.92207 6.11349 0.000102421 13.3838 0ZM95.6299 9.39258C100.039 9.39258 102.195 12.9007 102.9 14.7969L103.287 15.7627L91.9297 20.4668C92.7992 22.1713 94.1518 23.041 96.0479 23.041C97.9477 23.0409 99.2652 22.1057 100.23 20.6885L103.126 22.6191C102.191 24.002 99.9394 26.3846 96.0479 26.3848C91.2214 26.3848 87.6163 22.6538 87.6162 17.8887C87.6162 12.8362 91.2516 9.39265 95.6299 9.39258ZM86.0498 25.8672H82.4102V0.96875H86.0498V25.8672ZM35.6777 12.7441C33.1036 12.7442 30.8857 14.8358 30.8857 17.8926C30.8858 20.9186 33.1037 23.041 35.6777 23.041C38.2518 23.041 40.4697 20.9148 40.4697 17.8926C40.4697 14.8358 38.2519 12.7441 35.6777 12.7441ZM54.0645 12.7441C51.4904 12.7442 49.2725 14.8359 49.2725 17.8926C49.2725 20.9186 51.4904 23.0409 54.0645 23.041C56.6386 23.041 58.8564 20.9148 58.8564 17.8926C58.8564 14.8358 56.6386 12.7441 54.0645 12.7441ZM72.3936 12.7441C69.8196 12.7443 67.6632 14.9314 67.6631 17.9229C67.6631 20.8838 69.8195 23.0409 72.3936 23.041C74.9332 23.041 76.9297 20.8839 76.9297 17.9229C76.9296 14.9313 74.9331 12.7441 72.3936 12.7441ZM95.7568 12.6787C93.8607 12.6787 91.2207 14.353 91.3164 17.6318L98.9092 14.4795C98.4917 13.4185 97.2353 12.6788 95.7568 12.6787Z" fill="#2D2D2D"/>
</svg>
